<svg xmlns="http://www.w3.org/2000/svg" viewBox="0 0 512 512" width="512" height="512">

  <!-- Elegant Green Shield Outline -->
  <path
    d="M 256,60
       C 350,60 425,90 425,135
       C 425,270 375,375 256,450
       C 137,375 87,270 87,135
       C 87,90 162,60 256,60
       Z"
    fill="none"
    stroke="#00C805"
    stroke-width="32"
    stroke-linecap="round"
    stroke-linejoin="round"
  />

  <!-- Red Stop Hand -->
  <path
    d="m99.11,61.17c-3.51-2.92-8.78-2.46-11.75,1.04l-9.08,10.83v-40.89c0-3.97-2.64-7.5-6.29-8.38-1.93-.47-3.89-.26-5.61.56v-1.71c0-3.97-2.65-7.49-6.29-8.37-2.55-.62-5.17-.06-7.19,1.53-1.33,1.05-2.28,2.43-2.79,3.99-1.81-.98-3.93-1.27-6.01-.76-3.64.88-6.29,4.41-6.29,8.38v6.52c-1.64-.78-3.49-1.07-5.35-.67-3.61.76-6.55,4.54-6.55,8.43v40.56c0,16.28,12.29,30.18,27.98,31.63,1.01.09,2,.14,3,.14,7.65,0,14.88-2.74,20.6-7.87,4.59-4.1,7.9-9.12,11.1-13.98.7-1.06,1.4-2.13,2.11-3.19,3.45-5.08,7.05-10.54,10.01-16.42.94-1.87,1.38-3.45,1.38-4.97,0-2.46-1.08-4.79-2.98-6.4Zm-2.65,9.23c-2.83,5.62-6.35,10.94-9.7,15.89-.73,1.08-1.44,2.16-2.15,3.24-3.17,4.82-6.17,9.37-10.3,13.05-5.46,4.9-12.55,7.22-19.98,6.54-13.27-1.23-23.66-13.04-23.66-26.89v-40.56c0-1.61,1.37-3.48,2.78-3.77,1.22-.27,2.46.09,3.32.95.67.67,1.04,1.57,1.04,2.53v20.24c0,1.31,1.07,2.38,2.38,2.38s2.38-1.07,2.38-2.38V27.39c0-1.8,1.12-3.38,2.65-3.75,1.14-.28,2.25-.04,3.13.65.87.68,1.37,1.7,1.37,2.81v32.14c0,1.31,1.06,2.38,2.38,2.38s2.38-1.07,2.38-2.38V22.34c0-1.11.5-2.13,1.36-2.81.88-.7,1.99-.93,3.13-.65,1.54.37,2.65,1.94,2.65,3.74v36.62c0,1.31,1.07,2.38,2.38,2.38s2.38-1.07,2.38-2.38v-27.38c0-1.1.5-2.13,1.37-2.81.88-.69,1.99-.93,3.12-.65,1.54.37,2.65,1.95,2.65,3.75v44.93c-9.24.06-16.38,7.12-18.91,14.74-.42,1.25.26,2.6,1.51,3.01.25.08.5.12.75.12,1,0,1.92-.63,2.26-1.63,2.15-6.48,8.48-12.44,16.45-11.37.03,0,.06-.01.09,0,.27.02.54,0,.8-.05.05,0,.09-.03.14-.05.23-.07.45-.18.65-.32.08-.05.14-.12.21-.18.09-.08.18-.14.26-.23l13.28-15.84c1.27-1.51,3.55-1.71,5.04-.46.82.68,1.28,1.69,1.28,2.75,0,.74-.28,1.66-.87,2.83Z"
    fill="#EF4444"
    transform="translate(270, 240) scale(2.2) translate(-64, -65)"
  />
</svg>
